<?xml version="1.0" encoding="utf-8"?>
<!-- Generator: Adobe Illustrator 16.0.3, SVG Export Plug-In . SVG Version: 6.00 Build 0)  -->
<!DOCTYPE svg PUBLIC "-//W3C//DTD SVG 1.1//EN" "http://www.w3.org/Graphics/SVG/1.1/DTD/svg11.dtd">
<svg version="1.1" id="Camada_1" xmlns="http://www.w3.org/2000/svg" xmlns:xlink="http://www.w3.org/1999/xlink" x="0px" y="0px"
	 width="59.465px" height="47px" viewBox="0 0 59.465 47" enable-background="new 0 0 59.465 47" xml:space="preserve">
<g>
	<circle fill="#FFFFFF" cx="29.759" cy="22.608" r="4.287"/>
	<path fill="#FFFFFF" d="M12.571,46.548c-0.124,0.053-0.237,0.104-0.337,0.15c-0.101,0.047-0.233,0.096-0.396,0.148
		c-0.138,0.043-0.287,0.078-0.449,0.109c-0.16,0.029-0.339,0.045-0.534,0.045c-0.365,0-0.699-0.051-0.998-0.152
		c-0.3-0.104-0.561-0.264-0.781-0.48c-0.218-0.211-0.388-0.482-0.511-0.811c-0.121-0.328-0.182-0.711-0.182-1.146
		c0-0.412,0.059-0.779,0.177-1.104c0.117-0.326,0.287-0.6,0.508-0.826c0.214-0.215,0.472-0.383,0.778-0.498
		c0.305-0.113,0.641-0.172,1.013-0.172c0.271,0,0.54,0.033,0.811,0.1c0.271,0.064,0.572,0.182,0.901,0.342v0.791h-0.053
		c-0.186-0.154-0.375-0.33-0.826-0.506c-0.274-0.104-0.568-0.158-0.877-0.158c-0.256,0-0.484,0.043-0.689,0.123
		c-0.207,0.082-0.389,0.209-0.547,0.381c-0.158,0.17-0.278,0.381-0.367,0.641c-0.085,0.256-0.129,0.549-0.129,0.887
		c0,0.354,0.048,0.654,0.143,0.908c0.096,0.254,0.219,0.461,0.373,0.619c0.157,0.166,0.343,0.289,0.554,0.367
		c0.211,0.078,0.434,0.121,0.671,0.121c0.321,0,0.625-0.055,0.908-0.164c0.282-0.109,0.546-0.277,0.791-0.496h0.049V46.548
		L12.571,46.548z"/>
	<path fill="#FFFFFF" d="M23.505,46.989h-0.716l-0.493-1.395h-2.187l-0.495,1.395h-0.683l1.841-5.006h0.896L23.505,46.989
		L23.505,46.989z M22.085,45.022l-0.882-2.457l-0.889,2.457H22.085L22.085,45.022z"/>
	<path fill="#FFFFFF" d="M33.046,43.249c0,0.223-0.039,0.43-0.118,0.617c-0.079,0.191-0.188,0.355-0.326,0.492
		c-0.174,0.174-0.382,0.301-0.618,0.387c-0.238,0.086-0.539,0.131-0.898,0.131h-0.672v1.865h-0.672v-5.004h1.37
		c0.306,0,0.56,0.023,0.77,0.074c0.212,0.051,0.397,0.131,0.563,0.238c0.191,0.127,0.339,0.287,0.444,0.477
		C32.993,42.718,33.046,42.958,33.046,43.249L33.046,43.249z M32.346,43.265c0-0.172-0.029-0.32-0.091-0.449
		c-0.061-0.127-0.154-0.234-0.277-0.313c-0.11-0.068-0.232-0.119-0.373-0.148c-0.139-0.031-0.313-0.049-0.524-0.049h-0.667v2.004
		h0.565c0.274,0,0.493-0.027,0.663-0.074c0.17-0.049,0.309-0.125,0.412-0.232c0.107-0.104,0.182-0.219,0.227-0.338
		S32.346,43.415,32.346,43.265L32.346,43.265z"/>
	<polygon fill="#FFFFFF" points="42.457,46.788 39.131,46.788 39.131,41.782 42.457,41.782 42.457,42.376 39.804,42.376 
		39.804,43.745 42.457,43.745 42.457,44.339 39.804,44.339 39.804,46.196 42.457,46.196 42.457,46.788 	"/>
	<path fill="#FFFFFF" d="M51.864,45.157c0,0.195-0.047,0.391-0.139,0.58c-0.09,0.189-0.219,0.35-0.384,0.482
		c-0.179,0.145-0.391,0.256-0.63,0.338c-0.24,0.08-0.533,0.121-0.873,0.121c-0.362,0-0.689-0.031-0.981-0.102
		c-0.29-0.068-0.584-0.166-0.884-0.299v-0.834h0.046c0.256,0.211,0.548,0.373,0.885,0.49c0.335,0.111,0.648,0.168,0.942,0.168
		c0.415,0,0.738-0.076,0.971-0.232c0.232-0.154,0.349-0.359,0.349-0.617c0-0.223-0.056-0.387-0.165-0.492
		c-0.111-0.105-0.277-0.188-0.499-0.244c-0.173-0.045-0.356-0.082-0.55-0.111c-0.199-0.029-0.41-0.066-0.633-0.111
		c-0.446-0.096-0.777-0.254-0.994-0.482c-0.217-0.227-0.324-0.525-0.324-0.889c0-0.42,0.178-0.764,0.535-1.029
		c0.358-0.27,0.813-0.402,1.361-0.402c0.354,0,0.68,0.033,0.975,0.1c0.299,0.066,0.562,0.15,0.789,0.25v0.785h-0.049
		c-0.191-0.16-0.441-0.295-0.76-0.402c-0.309-0.107-0.631-0.158-0.96-0.158c-0.355,0-0.646,0.072-0.862,0.221
		c-0.219,0.148-0.329,0.34-0.329,0.572c0,0.209,0.055,0.373,0.165,0.492c0.105,0.119,0.297,0.209,0.57,0.27
		c0.145,0.033,0.35,0.07,0.615,0.113c0.267,0.051,0.494,0.094,0.68,0.141c0.375,0.098,0.658,0.248,0.848,0.449
		C51.77,44.521,51.864,44.8,51.864,45.157L51.864,45.157z"/>
	<g>
		<path fill-rule="evenodd" clip-rule="evenodd" fill="#FFFFFF" d="M47.673,0.265c0.454,0,0.826,0.352,0.826,0.786
			c0,0.432-0.372,0.785-0.826,0.785c-0.453,0-0.824-0.353-0.824-0.785C46.849,0.616,47.22,0.265,47.673,0.265L47.673,0.265z"/>
		<path fill="#FFFFFF" d="M47.673,2.1c-0.6,0-1.089-0.471-1.089-1.049c0-0.58,0.489-1.05,1.089-1.05c0.602,0,1.092,0.471,1.092,1.05
			C48.765,1.629,48.274,2.1,47.673,2.1L47.673,2.1z"/>
	</g>
	<g>
		<path fill="#FFFFFF" d="M26.106,37.956c-4.571,0-8.703-0.754-11.91-2.316c-3.262-1.588-5.379-3.975-6.163-6.928
			c-5.313-1.684-8.419-5.066-7.995-8.865c0.521-4.652,6.483-9.42,18.633-9.585c0.813-0.041,1.594-0.071,2.345-0.089
			c7.682-4.695,17.627-8.373,26.62-9.438l0.075,0.632c-8.558,1.014-17.979,4.409-25.44,8.785c2.774-0.026,5.04,0.126,6.808,0.441
			c14.93-4.652,26.865-0.101,29.793,7.001c2.107,5.115-0.904,10.381-8.059,14.088C42.904,35.778,33.872,37.956,26.106,37.956
			L26.106,37.956z M8.755,28.925c0.808,2.623,2.727,4.686,5.72,6.145c7.726,3.762,20.976,2.723,32.641-2.338
			c-0.068,0.016-0.138,0.029-0.207,0.041c-10.806,2.066-24.088,0.771-37.402-3.652C9.252,29.058,9.001,28.993,8.755,28.925
			L8.755,28.925z M8.565,28.208c0.362,0.109,0.735,0.209,1.117,0.301c13.238,4.396,26.408,5.686,37.106,3.639
			c4.719-0.902,7.479-3.357,7.384-6.572c-0.159-5.354-8.087-12.124-25.113-14.341l-1.434-0.187l0.056-0.018
			c-1.767-0.208-3.941-0.284-6.497-0.225c-4.359,2.683-7.959,5.696-10.191,8.733c-2.148,2.926-2.986,5.732-2.495,8.346
			C8.519,27.993,8.541,28.101,8.565,28.208L8.565,28.208z M30.601,10.807c16.391,2.461,24.045,9.295,24.207,14.75
			c0.041,1.357-0.366,2.592-1.168,3.65c4.551-3.303,6.279-7.402,4.643-11.373C55.614,11.354,44.386,6.995,30.601,10.807
			L30.601,10.807z M19.945,10.842c-0.41,0.016-0.827,0.034-1.253,0.056c-11.774,0.16-17.532,4.646-18.021,9.02
			c-0.379,3.395,2.399,6.445,7.2,8.07c-0.521-2.789,0.357-5.758,2.61-8.824C12.595,16.282,15.92,13.425,19.945,10.842L19.945,10.842
			z"/>
	</g>
</g>
</svg>
