<?xml version="1.0" encoding="utf-8"?>
<!-- Generator: Adobe Illustrator 16.0.3, SVG Export Plug-In . SVG Version: 6.00 Build 0)  -->
<!DOCTYPE svg PUBLIC "-//W3C//DTD SVG 1.1//EN" "http://www.w3.org/Graphics/SVG/1.1/DTD/svg11.dtd">
<svg version="1.1" id="seadUfes" xmlns="http://www.w3.org/2000/svg" xmlns:xlink="http://www.w3.org/1999/xlink" x="0px" y="0px"
	 width="119.283px" height="20px" viewBox="0 0 119.283 20" enable-background="new 0 0 119.283 20" xml:space="preserve">
<g>
	<path fill="#FFFFFF" d="M1.704,15.014c0.234,0.209,0.521,0.418,0.87,0.619c0.339,0.199,0.717,0.391,1.144,0.547
		c0.422,0.174,0.878,0.305,1.366,0.41c0.496,0.096,1,0.147,1.526,0.147c1.079,0,1.914-0.19,2.509-0.565
		c0.595-0.373,0.892-0.896,0.892-1.574c0-0.399-0.096-0.729-0.296-1.018c-0.2-0.277-0.479-0.531-0.831-0.757
		c-0.348-0.217-0.766-0.417-1.239-0.608c-0.479-0.174-0.992-0.365-1.544-0.558c-1.104-0.409-2.018-0.8-2.744-1.2
		c-0.722-0.4-1.3-0.826-1.731-1.296c-0.422-0.47-0.726-0.992-0.9-1.574C0.552,7.004,0.469,6.33,0.469,5.561
		c0-0.809,0.161-1.557,0.492-2.235c0.33-0.679,0.791-1.27,1.392-1.761c0.591-0.496,1.304-0.878,2.131-1.157
		C5.301,0.134,6.202,0,7.185,0c0.953,0,1.788,0.092,2.509,0.278c0.722,0.183,1.344,0.405,1.87,0.661
		c0.526,0.261,0.961,0.522,1.3,0.792c0.344,0.274,0.618,0.492,0.822,0.661l-1.683,2.574c-0.152-0.152-0.378-0.326-0.688-0.521
		c-0.309-0.196-0.665-0.383-1.074-0.561C9.832,3.709,9.393,3.557,8.918,3.435s-0.939-0.178-1.4-0.178
		c-0.482,0-0.904,0.052-1.27,0.161C5.878,3.522,5.578,3.67,5.33,3.849c-0.239,0.183-0.426,0.4-0.552,0.652
		c-0.126,0.248-0.191,0.513-0.191,0.8c0,0.348,0.083,0.648,0.235,0.896c0.157,0.244,0.396,0.474,0.713,0.678
		C5.848,7.08,6.252,7.28,6.74,7.475c0.496,0.2,1.07,0.417,1.74,0.657c0.996,0.357,1.848,0.731,2.561,1.113
		c0.713,0.396,1.3,0.831,1.757,1.327c0.461,0.496,0.8,1.053,1.018,1.68c0.213,0.635,0.326,1.355,0.326,2.19
		c0,0.748-0.165,1.461-0.496,2.123c-0.331,0.678-0.8,1.271-1.413,1.774c-0.618,0.512-1.361,0.914-2.244,1.217
		C9.106,19.854,8.11,20,7.01,20c-0.861,0-1.661-0.078-2.4-0.234c-0.735-0.156-1.396-0.348-1.979-0.592
		c-0.587-0.226-1.105-0.486-1.544-0.765c-0.439-0.287-0.8-0.548-1.087-0.8L1.704,15.014z"/>
	<path fill="#FFFFFF" d="M28.319,11.291h-6.94v5.168h8.332v3.26h-12.49V0.28h12.355v3.253h-8.197v4.501h6.94V11.291z"/>
	<path fill="#FFFFFF" d="M42.008,15.762h-5.623l-1.065,3.949h-4.196L37,0.275h4.405l5.879,19.436h-4.196L42.008,15.762z
		 M37.269,12.51h3.857l-1.896-7.185h-0.078L37.269,12.51z"/>
	<path fill="#FFFFFF" d="M49.685,19.719V0.28h6.184c1.327,0,2.5,0.222,3.514,0.67c1.013,0.452,1.865,1.079,2.548,1.883
		c0.687,0.809,1.199,1.766,1.548,2.883c0.348,1.122,0.522,2.344,0.522,3.666v1.249c0,1.383-0.191,2.644-0.558,3.756
		c-0.365,1.131-0.903,2.088-1.601,2.871c-0.695,0.783-1.547,1.393-2.557,1.826c-1.005,0.418-2.144,0.635-3.418,0.635H49.685z
		 M53.837,3.533v12.926h1.492c0.6,0,1.139-0.07,1.592-0.209c0.461-0.14,0.861-0.349,1.196-0.601c0.33-0.261,0.613-0.565,0.839-0.931
		c0.222-0.356,0.396-0.748,0.53-1.184c0.135-0.436,0.226-0.896,0.283-1.393c0.052-0.486,0.079-1,0.079-1.53v-1.26
		c0-0.853-0.07-1.64-0.213-2.348c-0.145-0.714-0.388-1.323-0.74-1.836c-0.344-0.509-0.809-0.909-1.387-1.2
		c-0.583-0.287-1.314-0.435-2.179-0.435H53.837L53.837,3.533z"/>
</g>
<g>
	<path fill="#FFFFFF" d="M83.518,4.251v10.379c0,0.887-0.156,1.662-0.452,2.332c-0.295,0.668-0.705,1.225-1.219,1.678
		c-0.521,0.453-1.121,0.791-1.816,1.02c-0.695,0.225-1.436,0.338-2.227,0.338c-0.844,0-1.618-0.113-2.322-0.355
		c-0.696-0.234-1.305-0.584-1.818-1.043c-0.504-0.453-0.896-1.026-1.174-1.688c-0.287-0.67-0.436-1.426-0.436-2.278V4.252h3.263
		v10.362c0,0.957,0.218,1.651,0.644,2.104c0.426,0.451,1.045,0.679,1.836,0.679c0.809,0,1.426-0.228,1.844-0.661
		c0.416-0.436,0.625-1.148,0.625-2.122V4.251H83.518L83.518,4.251L83.518,4.251z"/>
	<path fill="#FFFFFF" d="M94.921,13.432H89.71v6.35h-3.252V4.251h9.559v2.601H89.71v3.97h5.201v2.609H94.921z"/>
	<path fill="#FFFFFF" d="M106.566,13.049h-5.445v4.123h6.523v2.609h-9.776V4.251h9.672v2.601h-6.419v3.596h5.445V13.049
		L106.566,13.049z"/>
	<path fill="#FFFFFF" d="M110.271,16.145c0.19,0.156,0.426,0.314,0.696,0.47c0.277,0.157,0.564,0.287,0.869,0.399
		c0.313,0.123,0.635,0.209,0.957,0.279c0.331,0.068,0.652,0.104,0.958,0.104c0.338,0,0.66-0.045,0.938-0.122
		c0.278-0.069,0.521-0.19,0.722-0.331c0.2-0.148,0.356-0.322,0.479-0.539c0.104-0.209,0.156-0.443,0.156-0.713
		c0-0.313-0.052-0.592-0.174-0.816c-0.121-0.227-0.295-0.427-0.521-0.609c-0.227-0.174-0.514-0.332-0.852-0.479
		c-0.332-0.147-0.714-0.295-1.148-0.452c-0.87-0.322-1.566-0.652-2.087-1c-0.541-0.348-0.939-0.713-1.235-1.113
		c-0.295-0.383-0.487-0.817-0.573-1.27c-0.104-0.452-0.158-0.948-0.158-1.483c0-0.648,0.123-1.239,0.383-1.783
		c0.244-0.543,0.592-1.013,1.035-1.409c0.436-0.396,0.957-0.7,1.558-0.922c0.591-0.222,1.234-0.331,1.931-0.331
		c0.636,0,1.218,0.065,1.722,0.2c0.522,0.135,0.975,0.3,1.367,0.492c0.391,0.187,0.721,0.387,1,0.591
		c0.26,0.2,0.479,0.365,0.635,0.504l-1.313,2.053c-0.504-0.413-1.026-0.722-1.565-0.931c-0.53-0.205-1.062-0.304-1.584-0.304
		c-0.295,0-0.574,0.039-0.799,0.126c-0.244,0.083-0.453,0.2-0.61,0.343c-0.174,0.148-0.295,0.322-0.383,0.522
		c-0.086,0.196-0.139,0.413-0.139,0.639c0,0.274,0.053,0.518,0.131,0.709c0.078,0.196,0.227,0.374,0.425,0.54
		c0.209,0.165,0.479,0.322,0.826,0.478c0.34,0.148,0.774,0.322,1.297,0.513c0.782,0.287,1.426,0.599,1.957,0.939
		c0.512,0.339,0.93,0.722,1.252,1.139c0.313,0.417,0.53,0.87,0.67,1.357c0.121,0.504,0.19,1.043,0.19,1.625
		c0,0.601-0.122,1.158-0.364,1.697c-0.252,0.539-0.609,1.008-1.063,1.416c-0.461,0.409-1.01,0.732-1.645,0.965
		c-0.644,0.244-1.365,0.357-2.147,0.357c-0.565,0-1.113-0.053-1.626-0.166c-0.522-0.104-1-0.242-1.452-0.416
		c-0.443-0.175-0.844-0.376-1.191-0.593c-0.349-0.209-0.636-0.417-0.861-0.608L110.271,16.145z"/>
</g>
</svg>
