<?xml version="1.0" encoding="utf-8"?>
<!-- Generator: Adobe Illustrator 16.0.3, SVG Export Plug-In . SVG Version: 6.00 Build 0)  -->
<!DOCTYPE svg PUBLIC "-//W3C//DTD SVG 1.1//EN" "http://www.w3.org/Graphics/SVG/1.1/DTD/svg11.dtd">
<svg version="1.1" id="Camada_1" xmlns="http://www.w3.org/2000/svg" xmlns:xlink="http://www.w3.org/1999/xlink" x="0px" y="0px"
	 width="66.737px" height="30.001px" viewBox="0 0 66.737 30.001" enable-background="new 0 0 66.737 30.001" xml:space="preserve">
<g>
	<g>
		<g>
			<path fill="#FFFFFF" d="M5.574,25.108c0.227,0.201,0.509,0.402,0.845,0.604s0.712,0.383,1.127,0.545
				c0.415,0.162,0.863,0.293,1.344,0.395c0.48,0.098,0.979,0.148,1.495,0.148c1.058,0,1.879-0.184,2.465-0.555
				c0.585-0.373,0.879-0.887,0.879-1.543c0-0.393-0.099-0.727-0.295-1.004c-0.197-0.273-0.467-0.521-0.813-0.738
				c-0.345-0.221-0.751-0.418-1.218-0.598c-0.468-0.18-0.973-0.365-1.515-0.557c-1.084-0.395-1.983-0.785-2.695-1.174
				s-1.278-0.813-1.698-1.271c-0.419-0.459-0.714-0.975-0.885-1.549c-0.17-0.57-0.254-1.232-0.254-1.986
				c0-0.795,0.161-1.526,0.485-2.195c0.323-0.669,0.777-1.247,1.363-1.731s1.283-0.863,2.092-1.133
				c0.809-0.271,1.694-0.407,2.654-0.407c0.936,0,1.758,0.091,2.466,0.274c0.707,0.183,1.32,0.4,1.835,0.652
				c0.516,0.253,0.942,0.512,1.278,0.777c0.337,0.266,0.605,0.48,0.806,0.646l-1.652,2.528c-0.148-0.149-0.374-0.32-0.675-0.512
				s-0.653-0.376-1.055-0.551c-0.402-0.176-0.835-0.322-1.298-0.439c-0.464-0.118-0.923-0.177-1.378-0.177
				c-0.471,0-0.887,0.052-1.245,0.157c-0.358,0.104-0.658,0.247-0.898,0.426c-0.241,0.181-0.422,0.393-0.544,0.637
				c-0.123,0.246-0.184,0.508-0.184,0.788c0,0.342,0.077,0.635,0.23,0.879c0.152,0.246,0.384,0.469,0.695,0.67
				c0.31,0.201,0.705,0.398,1.187,0.59c0.48,0.193,1.049,0.408,1.705,0.643c0.978,0.352,1.817,0.717,2.517,1.098
				c0.698,0.379,1.273,0.813,1.724,1.299c0.45,0.484,0.782,1.037,0.996,1.652c0.215,0.617,0.321,1.332,0.321,2.146
				c0,0.734-0.161,1.432-0.486,2.092c-0.323,0.66-0.787,1.24-1.389,1.738c-0.603,0.5-1.337,0.895-2.203,1.189
				c-0.865,0.291-1.84,0.439-2.923,0.439c-0.849,0-1.632-0.078-2.354-0.23s-1.37-0.346-1.947-0.576
				c-0.577-0.232-1.081-0.486-1.514-0.76c-0.434-0.277-0.79-0.537-1.069-0.783L5.574,25.108z"/>
			<path fill="#FFFFFF" d="M31.704,21.45h-6.818v5.074h8.181v3.199H20.808V10.634h12.128v3.199h-8.05v4.42h6.818V21.45z"/>
			<path fill="#FFFFFF" d="M45.144,25.845h-5.521l-1.047,3.879h-4.117l5.768-19.089h4.326l5.77,19.089h-4.115L45.144,25.845z
				 M40.487,22.644h3.789l-1.861-7.053h-0.078L40.487,22.644z"/>
			<path fill="#FFFFFF" d="M52.683,29.724V10.634h6.07c1.301,0,2.451,0.22,3.447,0.661c0.998,0.442,1.832,1.059,2.504,1.85
				c0.674,0.791,1.18,1.734,1.521,2.833c0.34,1.098,0.512,2.297,0.512,3.598v1.221c0,1.363-0.182,2.596-0.545,3.697
				c-0.361,1.102-0.887,2.039-1.574,2.811c-0.686,0.775-1.521,1.371-2.51,1.791c-0.986,0.42-2.105,0.629-3.355,0.629H52.683z
				 M56.759,13.833v12.691h1.461c0.594,0,1.117-0.068,1.568-0.209s0.842-0.338,1.17-0.588c0.328-0.254,0.602-0.559,0.822-0.912
				c0.219-0.354,0.393-0.742,0.525-1.164c0.131-0.424,0.223-0.879,0.275-1.361c0.053-0.486,0.078-0.988,0.078-1.5v-1.246
				c0-0.838-0.07-1.605-0.209-2.305c-0.143-0.699-0.383-1.299-0.725-1.801c-0.342-0.503-0.795-0.896-1.365-1.181
				c-0.568-0.283-1.283-0.425-2.141-0.425H56.759z"/>
		</g>
	</g>
	<path fill="#FFFFFF" d="M22.243,3.742C19.29,1.425,15.35,0.006,11.024,0C6.697-0.005,2.962,1.579,0,3.886l1.041,0.893
		C3.707,2.629,7.303,1.313,11.259,1.32c3.835,0.006,7.329,1.253,9.962,3.295L22.243,3.742z"/>
	<path fill="#FFFFFF" d="M3.888,7.218c1.927-1.498,4.49-2.409,7.302-2.405c2.722,0.004,5.209,0.868,7.109,2.288l1.053-0.897
		c-2.214-1.688-5.134-2.715-8.333-2.72C7.817,3.48,4.895,4.498,2.675,6.179"/>
	<path fill="#FFFFFF" d="M6.616,9.556c1.215-0.872,2.783-1.395,4.494-1.392c1.662,0.002,3.185,0.5,4.382,1.329l1.096-0.933
		c-1.479-1.065-3.389-1.709-5.474-1.712c-2.137-0.003-4.09,0.665-5.586,1.773L6.616,9.556z"/>
</g>
</svg>
