<?xml version="1.0" encoding="utf-8"?>
<!-- Generator: Adobe Illustrator 16.0.3, SVG Export Plug-In . SVG Version: 6.00 Build 0)  -->
<!DOCTYPE svg PUBLIC "-//W3C//DTD SVG 1.1//EN" "http://www.w3.org/Graphics/SVG/1.1/DTD/svg11.dtd">
<svg version="1.1" id="Camada_1" xmlns="http://www.w3.org/2000/svg" xmlns:xlink="http://www.w3.org/1999/xlink" x="0px" y="0px"
	 width="45.918px" height="47px" viewBox="0 0 45.918 47" enable-background="new 0 0 45.918 47" xml:space="preserve">
<g>
	<g>
		<polygon fill="#FFFFFF" points="4.208,0 16.622,0 16.622,6.671 4.208,22.253 		"/>
		<path fill="#FFFFFF" d="M16.986,0v7.312L0,36.103h13.621l4.538-7.087V0H16.986z M17.376,26.306L14.55,13.319l2.826-4.551V26.306z"
			/>
		<path fill-rule="evenodd" clip-rule="evenodd" fill="#FFFFFF" d="M31.894,22.592c0-3.85,0-8.907,0-16.871h13.955v30.381H21.152
			C31.802,32.709,31.894,22.93,31.894,22.592z"/>
	</g>
	<path fill="#FFFFFF" d="M43.704,44.154h0.865v2.108h1.348v0.688h-2.213V44.154z M42.218,44.154h0.867v2.797h-0.867V44.154z
		 M39.212,46.027l0.822-0.052c0.018,0.134,0.055,0.234,0.107,0.304c0.09,0.113,0.217,0.172,0.383,0.172
		c0.123,0,0.219-0.03,0.285-0.088c0.066-0.059,0.1-0.125,0.1-0.201c0-0.072-0.031-0.137-0.096-0.194s-0.211-0.112-0.441-0.163
		c-0.381-0.086-0.65-0.197-0.813-0.338c-0.162-0.142-0.242-0.322-0.242-0.541c0-0.144,0.041-0.28,0.125-0.408
		c0.082-0.127,0.207-0.228,0.375-0.301c0.166-0.072,0.396-0.109,0.688-0.109c0.357,0,0.631,0.066,0.818,0.199
		s0.299,0.346,0.334,0.634l-0.814,0.048c-0.021-0.125-0.066-0.217-0.137-0.274c-0.07-0.056-0.164-0.085-0.287-0.085
		c-0.1,0-0.176,0.021-0.227,0.063c-0.051,0.043-0.076,0.096-0.076,0.157c0,0.044,0.021,0.084,0.063,0.12
		c0.041,0.035,0.137,0.069,0.291,0.102c0.377,0.081,0.646,0.165,0.811,0.247c0.164,0.084,0.283,0.187,0.357,0.311
		c0.074,0.122,0.111,0.261,0.111,0.415c0,0.178-0.051,0.344-0.148,0.494c-0.1,0.152-0.238,0.268-0.416,0.345S40.782,47,40.511,47
		c-0.475,0-0.805-0.092-0.988-0.275C39.339,46.542,39.235,46.309,39.212,46.027z M37.862,45.886l-0.309-1.006l-0.309,1.006H37.862z
		 M38.044,46.49H37.06l-0.137,0.461H36.04l1.051-2.797h0.943l1.053,2.797h-0.906L38.044,46.49z M34.163,45.288h0.365
		c0.039,0,0.115-0.013,0.229-0.037c0.057-0.013,0.104-0.042,0.141-0.089c0.035-0.047,0.055-0.101,0.055-0.161
		c0-0.092-0.029-0.16-0.088-0.208c-0.057-0.05-0.164-0.073-0.322-0.073h-0.379V45.288z M33.296,46.951v-2.797h1.439
		c0.268,0,0.473,0.023,0.613,0.07c0.141,0.045,0.254,0.131,0.342,0.255c0.086,0.122,0.129,0.274,0.129,0.452
		c0,0.156-0.033,0.289-0.1,0.401c-0.066,0.113-0.156,0.203-0.273,0.274c-0.074,0.044-0.174,0.081-0.303,0.11
		c0.104,0.034,0.178,0.068,0.227,0.103c0.031,0.023,0.076,0.071,0.137,0.147c0.061,0.075,0.102,0.132,0.121,0.174l0.418,0.81h-0.977
		l-0.461-0.854c-0.059-0.11-0.111-0.182-0.156-0.216c-0.063-0.042-0.135-0.063-0.213-0.063h-0.076v1.134H33.296z M31.118,46.352
		h0.441c0.148,0,0.254-0.027,0.314-0.08s0.092-0.123,0.092-0.212c0-0.083-0.031-0.149-0.092-0.2
		c-0.061-0.05-0.166-0.074-0.316-0.074h-0.439V46.352z M31.118,45.252h0.375c0.137,0,0.23-0.023,0.283-0.069
		c0.053-0.047,0.078-0.113,0.078-0.202c0-0.08-0.025-0.145-0.078-0.189c-0.053-0.047-0.145-0.069-0.275-0.069h-0.383V45.252z
		 M30.247,44.154h1.617c0.27,0,0.477,0.067,0.621,0.201c0.145,0.133,0.217,0.299,0.217,0.496c0,0.165-0.051,0.308-0.154,0.426
		c-0.068,0.079-0.17,0.141-0.303,0.186c0.201,0.049,0.35,0.133,0.445,0.25c0.094,0.118,0.141,0.266,0.141,0.443
		c0,0.146-0.033,0.275-0.1,0.393c-0.068,0.114-0.16,0.206-0.277,0.274c-0.072,0.04-0.182,0.071-0.328,0.09
		c-0.195,0.026-0.324,0.038-0.387,0.038h-1.492V44.154z M26.443,45.56c0,0.282,0.052,0.484,0.156,0.608
		c0.105,0.123,0.248,0.185,0.429,0.185c0.187,0,0.33-0.06,0.432-0.181s0.153-0.338,0.153-0.65c0-0.265-0.055-0.455-0.16-0.578
		c-0.105-0.121-0.25-0.182-0.432-0.182c-0.175,0-0.314,0.063-0.42,0.186C26.496,45.069,26.443,45.273,26.443,45.56z M25.578,45.555
		c0-0.456,0.128-0.812,0.382-1.066c0.255-0.254,0.608-0.381,1.063-0.381c0.465,0,0.824,0.125,1.076,0.375
		c0.251,0.25,0.377,0.6,0.377,1.049c0,0.328-0.055,0.597-0.164,0.807c-0.111,0.207-0.27,0.37-0.479,0.486
		C27.626,46.941,27.368,47,27.056,47c-0.314,0-0.575-0.051-0.783-0.15c-0.206-0.102-0.373-0.261-0.502-0.479
		C25.642,46.154,25.578,45.883,25.578,45.555z M23.524,44.788v1.528h0.211c0.181,0,0.309-0.02,0.386-0.061
		c0.076-0.039,0.136-0.109,0.18-0.209c0.043-0.1,0.064-0.262,0.064-0.486c0-0.296-0.049-0.498-0.145-0.607
		c-0.097-0.109-0.257-0.165-0.481-0.165H23.524z M22.659,44.154h1.285c0.252,0,0.457,0.035,0.612,0.104
		c0.156,0.069,0.285,0.167,0.387,0.296s0.176,0.278,0.222,0.448c0.045,0.172,0.068,0.352,0.068,0.542c0,0.3-0.034,0.53-0.103,0.695
		c-0.067,0.165-0.162,0.303-0.282,0.413c-0.121,0.111-0.251,0.186-0.39,0.224c-0.189,0.052-0.361,0.075-0.515,0.075h-1.285V44.154z
		 M19.845,45.886l-0.309-1.006l-0.308,1.006H19.845z M20.026,46.49h-0.984l-0.136,0.461h-0.883l1.051-2.797h0.942l1.051,2.797
		h-0.904L20.026,46.49z M15.553,44.154h2.627v0.691h-0.882v2.105h-0.865v-2.105h-0.88V44.154z M13.624,45.288h0.365
		c0.04,0,0.116-0.013,0.229-0.037c0.058-0.013,0.104-0.042,0.141-0.089c0.036-0.047,0.054-0.101,0.054-0.161
		c0-0.092-0.029-0.16-0.086-0.208c-0.058-0.05-0.165-0.073-0.323-0.073h-0.38V45.288z M12.756,46.951v-2.797h1.44
		c0.267,0,0.471,0.023,0.612,0.07c0.142,0.045,0.255,0.131,0.342,0.255c0.087,0.122,0.129,0.274,0.129,0.452
		c0,0.156-0.033,0.289-0.099,0.401c-0.066,0.113-0.157,0.203-0.273,0.274c-0.075,0.044-0.175,0.081-0.304,0.11
		c0.104,0.034,0.178,0.068,0.225,0.103c0.032,0.023,0.078,0.071,0.138,0.147c0.061,0.075,0.101,0.132,0.121,0.174l0.418,0.81H14.53
		l-0.462-0.854c-0.058-0.11-0.11-0.182-0.157-0.216c-0.062-0.042-0.133-0.063-0.212-0.063h-0.076v1.134H12.756z M9.921,44.154h2.316
		v0.598h-1.45v0.444h1.345v0.571h-1.345v0.551h1.492v0.633H9.921V44.154z M7.757,46.352h0.441c0.149,0,0.254-0.027,0.314-0.08
		c0.061-0.053,0.091-0.123,0.091-0.212c0-0.083-0.029-0.149-0.09-0.2c-0.061-0.05-0.166-0.074-0.317-0.074H7.757V46.352z
		 M7.757,45.252h0.375c0.135,0,0.229-0.023,0.282-0.069c0.053-0.047,0.08-0.113,0.08-0.202c0-0.08-0.026-0.145-0.08-0.189
		c-0.053-0.047-0.145-0.069-0.275-0.069H7.757V45.252z M6.885,44.154h1.618c0.27,0,0.477,0.067,0.621,0.201
		c0.145,0.133,0.217,0.299,0.217,0.496c0,0.165-0.051,0.308-0.154,0.426c-0.069,0.079-0.169,0.141-0.302,0.186
		c0.201,0.049,0.348,0.133,0.443,0.25c0.095,0.118,0.143,0.266,0.143,0.443c0,0.146-0.034,0.275-0.102,0.393
		c-0.067,0.114-0.159,0.206-0.276,0.274c-0.072,0.04-0.182,0.071-0.329,0.09c-0.195,0.026-0.323,0.038-0.388,0.038H6.885V44.154z
		 M5.384,45.886L5.075,44.88l-0.308,1.006H5.384z M5.565,46.49H4.581l-0.136,0.461H3.562l1.051-2.797h0.943l1.052,2.797H5.703
		L5.565,46.49z M42.456,38.757h2.924v0.755h-1.83v0.561h1.699v0.721H43.55v0.695h1.885v0.801h-2.979V38.757z M39.726,39.558v1.929
		h0.266c0.23,0,0.393-0.024,0.488-0.076c0.096-0.049,0.172-0.138,0.227-0.265c0.055-0.126,0.082-0.331,0.082-0.613
		c0-0.374-0.061-0.63-0.184-0.769c-0.121-0.138-0.324-0.206-0.607-0.206H39.726z M38.634,38.757h1.621
		c0.32,0,0.578,0.044,0.775,0.13c0.197,0.088,0.359,0.211,0.486,0.373c0.129,0.162,0.223,0.352,0.281,0.566
		c0.057,0.216,0.086,0.443,0.086,0.685c0,0.378-0.041,0.671-0.129,0.88c-0.086,0.207-0.205,0.382-0.357,0.521
		s-0.316,0.234-0.492,0.281c-0.238,0.063-0.455,0.096-0.65,0.096h-1.621V38.757z M36.724,40.941l-0.389-1.27l-0.389,1.27H36.724z
		 M36.954,41.705H35.71l-0.172,0.584h-1.115l1.328-3.532h1.189l1.33,3.532h-1.143L36.954,41.705z M32.259,39.558v1.929h0.268
		c0.229,0,0.391-0.024,0.486-0.076c0.098-0.049,0.174-0.138,0.229-0.265c0.055-0.126,0.082-0.331,0.082-0.613
		c0-0.374-0.063-0.63-0.184-0.769c-0.123-0.138-0.324-0.206-0.607-0.206H32.259z M31.167,38.757h1.623
		c0.318,0,0.578,0.044,0.773,0.13c0.197,0.088,0.361,0.211,0.488,0.373c0.129,0.162,0.223,0.352,0.279,0.566
		c0.059,0.216,0.088,0.443,0.088,0.685c0,0.378-0.043,0.671-0.129,0.88c-0.086,0.207-0.205,0.382-0.359,0.521
		c-0.15,0.14-0.314,0.234-0.49,0.281c-0.238,0.063-0.457,0.096-0.65,0.096h-1.623V38.757z M29.277,38.757h1.093v3.532h-1.093V38.757
		z M25.478,41.121l1.039-0.066c0.022,0.17,0.068,0.299,0.138,0.387c0.112,0.143,0.272,0.213,0.481,0.213
		c0.156,0,0.275-0.035,0.36-0.108c0.084-0.073,0.126-0.158,0.126-0.255c0-0.092-0.039-0.174-0.119-0.245
		c-0.082-0.073-0.268-0.142-0.561-0.204c-0.479-0.109-0.82-0.25-1.023-0.43c-0.205-0.178-0.309-0.406-0.309-0.682
		c0-0.182,0.053-0.354,0.158-0.514c0.105-0.162,0.262-0.289,0.475-0.383c0.211-0.092,0.5-0.138,0.868-0.138
		c0.452,0,0.796,0.083,1.032,0.251c0.238,0.168,0.379,0.437,0.424,0.803l-1.029,0.059c-0.027-0.158-0.084-0.274-0.172-0.346
		s-0.209-0.109-0.363-0.109c-0.127,0-0.223,0.027-0.287,0.082c-0.063,0.053-0.096,0.119-0.096,0.196
		c0,0.056,0.026,0.106,0.079,0.151c0.052,0.047,0.174,0.09,0.367,0.13c0.478,0.103,0.818,0.208,1.024,0.312
		c0.207,0.105,0.357,0.236,0.451,0.393s0.142,0.33,0.142,0.523c0,0.225-0.063,0.435-0.188,0.625
		c-0.125,0.193-0.301,0.338-0.525,0.436c-0.225,0.1-0.508,0.148-0.851,0.148c-0.601,0-1.017-0.115-1.248-0.348
		C25.64,41.771,25.509,41.478,25.478,41.121z M22.94,40.188h0.461c0.05,0,0.146-0.016,0.289-0.048
		c0.072-0.015,0.132-0.052,0.178-0.11c0.045-0.061,0.068-0.127,0.068-0.205c0-0.115-0.037-0.201-0.109-0.262
		c-0.072-0.063-0.208-0.094-0.407-0.094H22.94V40.188z M21.844,42.289v-3.532h1.82c0.337,0,0.596,0.029,0.773,0.087
		c0.178,0.057,0.322,0.164,0.432,0.321s0.164,0.348,0.164,0.573c0,0.195-0.042,0.364-0.125,0.507
		c-0.084,0.142-0.199,0.257-0.346,0.347c-0.093,0.055-0.221,0.102-0.383,0.138c0.131,0.044,0.225,0.089,0.285,0.132
		c0.039,0.027,0.098,0.09,0.174,0.185c0.077,0.095,0.127,0.168,0.152,0.22l0.528,1.023h-1.233l-0.583-1.08
		c-0.074-0.139-0.14-0.229-0.198-0.271c-0.078-0.055-0.167-0.082-0.268-0.082H22.94v1.434H21.844z M18.264,38.757h2.925v0.755
		h-1.832v0.561h1.699v0.721h-1.699v0.695h1.885v0.801h-2.979V38.757z M14.078,38.757h1.142l0.795,2.542l0.783-2.542h1.109
		l-1.312,3.532h-1.183L14.078,38.757z M12.549,38.757h1.094v3.532h-1.094V38.757z M8.401,38.757h1.021l1.33,1.954v-1.954h1.029
		v3.532h-1.029l-1.323-1.938v1.938H8.401V38.757z M6.583,38.757h1.089v2.106c0,0.209-0.032,0.406-0.098,0.591
		c-0.065,0.185-0.167,0.348-0.306,0.487c-0.14,0.139-0.285,0.236-0.438,0.293c-0.213,0.078-0.467,0.119-0.765,0.119
		c-0.172,0-0.359-0.014-0.563-0.037c-0.204-0.023-0.373-0.072-0.509-0.144s-0.262-0.174-0.375-0.306
		c-0.114-0.132-0.191-0.268-0.232-0.406c-0.068-0.226-0.102-0.424-0.102-0.598v-2.106h1.09v2.157c0,0.192,0.054,0.344,0.159,0.451
		c0.107,0.109,0.255,0.162,0.446,0.162c0.188,0,0.335-0.053,0.442-0.16c0.106-0.105,0.16-0.258,0.16-0.453V38.757z"/>
	<path fill="#FFFFFF" d="M43.185,3.503h0.703c0.238,0,0.404-0.04,0.502-0.125c0.098-0.084,0.146-0.197,0.146-0.34
		c0-0.13-0.047-0.237-0.145-0.317C44.296,2.64,44.126,2.6,43.884,2.6h-0.699V3.503z M43.185,1.751h0.6
		c0.215,0,0.363-0.038,0.449-0.112c0.084-0.075,0.125-0.182,0.125-0.321c0-0.129-0.041-0.231-0.125-0.304
		c-0.086-0.073-0.232-0.109-0.441-0.109h-0.607V1.751z M41.794,0h2.58c0.432,0,0.762,0.107,0.992,0.32
		c0.229,0.212,0.344,0.477,0.344,0.792c0,0.264-0.08,0.491-0.246,0.678c-0.109,0.126-0.27,0.227-0.48,0.3
		c0.32,0.076,0.557,0.209,0.707,0.396c0.15,0.188,0.227,0.424,0.227,0.708c0,0.232-0.053,0.44-0.16,0.625
		c-0.107,0.185-0.256,0.331-0.441,0.438c-0.117,0.067-0.291,0.115-0.525,0.146c-0.309,0.041-0.516,0.061-0.617,0.061h-2.379V0z
		 M39.397,2.761l-0.494-1.605l-0.49,1.605H39.397z M39.687,3.727h-1.572l-0.215,0.736h-1.41L38.167,0h1.504l1.678,4.462h-1.443
		L39.687,3.727z M34.864,0h1.377v2.66c0,0.266-0.043,0.514-0.125,0.749c-0.082,0.232-0.211,0.439-0.387,0.614
		c-0.176,0.176-0.359,0.298-0.551,0.37c-0.27,0.099-0.59,0.149-0.967,0.149c-0.217,0-0.453-0.014-0.711-0.045
		c-0.256-0.031-0.471-0.092-0.643-0.182s-0.33-0.219-0.473-0.385c-0.145-0.166-0.242-0.338-0.295-0.514
		c-0.086-0.284-0.129-0.535-0.129-0.756V0h1.377v2.724c0,0.245,0.068,0.435,0.203,0.571c0.135,0.136,0.32,0.205,0.561,0.205
		c0.236,0,0.424-0.067,0.559-0.202c0.135-0.134,0.203-0.326,0.203-0.574V0z"/>
</g>
</svg>
