<?xml version="1.0" encoding="utf-8"?>
<!-- Generator: Adobe Illustrator 16.0.3, SVG Export Plug-In . SVG Version: 6.00 Build 0)  -->
<!DOCTYPE svg PUBLIC "-//W3C//DTD SVG 1.1//EN" "http://www.w3.org/Graphics/SVG/1.1/DTD/svg11.dtd">
<svg version="1.1" id="Camada_1" xmlns="http://www.w3.org/2000/svg" xmlns:xlink="http://www.w3.org/1999/xlink" x="0px" y="0px"
	 width="57.824px" height="30px" viewBox="0 0 57.824 30" enable-background="new 0 0 57.824 30" xml:space="preserve">
<g>
	<g>
		<g>
			<g>
				<path fill="#FFFFFF" d="M34.694,16.644v3.5l12.632-2.093c1.151,1.236,6.315,0.642,6.315-2.049
					c0-3.372-10.754,1.066-10.754-6.315c0-0.512,0.043-1.024,0.127-1.536l-8.32,1.366v3.158l5.505-0.854v3.969L34.694,16.644z"/>
			</g>
		</g>
	</g>
	<g>
		<g>
			<g>
				<polygon fill="#FFFFFF" points="21.38,14.936 26.927,14.04 26.927,18.008 21.38,18.905 21.38,26.372 30.042,24.836 
					30.042,10.327 21.38,11.778 				"/>
			</g>
		</g>
	</g>
	<g>
		<g>
			<g>
				<path fill="#FFFFFF" d="M11.564,27.866v0.213l5.121-0.895v-9.688H16.43C16.344,23.385,14.765,26.415,11.564,27.866z"/>
			</g>
		</g>
	</g>
	<g>
		<g>
			<g>
				<path fill="#FFFFFF" d="M53.599,7.383c-0.256-2.561-6.104-1.494-6.104,0.896c0,2.859,7.725,0.085,10.114,3.798h0.214V6.743
					H57.61L53.599,7.383z"/>
			</g>
		</g>
	</g>
	<g>
		<g>
			<g>
				<path fill="#FFFFFF" d="M0,0v11.352l4.822-0.815v8.326c0,4.479,0.726,6.486,3.542,6.062c2.816-0.428,3.456-2.775,3.456-7.17
					v-8.4l31.879-5.386v1.963h0.213c1.237-1.963,3.584-3.2,6.827-3.712c3.286-0.555,6.062,0.384,6.913,2.987h0.172V0H0z"/>
			</g>
		</g>
	</g>
	<path fill="#FFFFFF" d="M50.826,22.362c-2.477,0.383-5.121,0.17-6.828-0.896h-0.213V30h14.039V18.222h-0.172
		C56.458,20.655,53.77,21.892,50.826,22.362z"/>
</g>
</svg>
